<?xml version="1.0" encoding="utf-8"?>
<!-- Generator: Adobe Illustrator 23.0.3, SVG Export Plug-In . SVG Version: 6.00 Build 0)  -->
<svg version="1.1" id="Layer_1" xmlns="http://www.w3.org/2000/svg" xmlns:xlink="http://www.w3.org/1999/xlink" x="0px" y="0px"
	 viewBox="0 0 352 134.7" style="enable-background:new 0 0 352 134.7;" xml:space="preserve">
<style type="text/css">
	.st0{display:none;}
	.st1{display:inline;stroke:#FFFFFF;stroke-miterlimit:10;}
	.st2{fill:none;}
	.st3{enable-background:new    ;}
</style>
<g class="st0">
	<rect x="-111" y="-300" class="st1" width="612" height="792"/>
</g>
<g>
	<g>
		<g>
			<g>
				<path d="M71.8,105.1L71.8,105.1v4.3h-2.3V98.5h2.3v1.1l0,0c0.6-0.9,1.4-1.3,2.4-1.3s1.7,0.3,2.3,1c0.5,0.7,0.8,1.6,0.8,2.7
					c0,1.2-0.3,2.3-0.9,3s-1.4,1.1-2.5,1.1C73,106.2,72.3,105.9,71.8,105.1z M71.7,102.1v0.6c0,0.5,0.1,0.9,0.4,1.3
					c0.3,0.3,0.6,0.5,1.1,0.5s0.9-0.2,1.2-0.6s0.4-1,0.4-1.7c0-1.3-0.5-2-1.5-2c-0.5,0-0.9,0.2-1.2,0.5
					C71.9,101,71.7,101.5,71.7,102.1z"/>
				<path d="M82.3,106.2c-1.3,0-2.2-0.4-2.9-1.1s-1.1-1.7-1.1-2.9c0-1.2,0.4-2.2,1.1-2.9c0.7-0.7,1.7-1.1,3-1.1
					c1.2,0,2.2,0.4,2.9,1.1s1.1,1.6,1.1,2.8c0,1.2-0.4,2.2-1.1,3C84.6,105.8,83.6,106.2,82.3,106.2z M82.4,100.1
					c-0.5,0-1,0.2-1.3,0.6s-0.5,0.9-0.5,1.6c0,1.4,0.6,2.2,1.7,2.2c1.1,0,1.7-0.7,1.7-2.2C84.1,100.8,83.5,100.1,82.4,100.1z"/>
				<path d="M98.8,98.5l-2.2,7.5h-2.4l-1.1-4.4c-0.1-0.3-0.1-0.6-0.1-1l0,0c0,0.4-0.1,0.7-0.1,0.9l-1.2,4.4h-2.4l-2.1-7.5h2.4l1,4.9
					c0,0.2,0.1,0.5,0.1,0.8l0,0c0-0.3,0.1-0.6,0.1-0.9l1.3-4.9h2.2l1.2,4.9c0,0.1,0.1,0.4,0.1,0.8h0.1c0-0.3,0.1-0.6,0.1-0.8l1-4.9
					h2V98.5z"/>
				<path d="M106.6,102.9h-4.9c0.1,1.1,0.8,1.6,2.1,1.6c0.8,0,1.6-0.2,2.2-0.6v1.7c-0.7,0.4-1.6,0.6-2.7,0.6c-1.2,0-2.2-0.3-2.8-1
					c-0.7-0.7-1-1.6-1-2.8c0-1.2,0.4-2.2,1.1-3c0.7-0.7,1.6-1.1,2.7-1.1c1.1,0,1.9,0.3,2.5,1c0.6,0.6,0.9,1.5,0.9,2.6v1H106.6z
					 M104.5,101.5c0-1.1-0.4-1.6-1.3-1.6c-0.4,0-0.7,0.2-1,0.5s-0.4,0.7-0.5,1.1H104.5z"/>
				<path d="M112.9,100.6c-0.3-0.2-0.6-0.2-1-0.2c-0.5,0-0.9,0.2-1.2,0.6s-0.4,0.9-0.4,1.5v3.6H108v-7.5h2.3v1.4l0,0
					c0.4-1,1-1.5,2-1.5c0.2,0,0.4,0,0.6,0.1L112.9,100.6L112.9,100.6z"/>
				<path d="M120.7,102.9h-4.9c0.1,1.1,0.8,1.6,2.1,1.6c0.8,0,1.6-0.2,2.2-0.6v1.7c-0.7,0.4-1.6,0.6-2.7,0.6c-1.2,0-2.2-0.3-2.8-1
					c-0.7-0.7-1-1.6-1-2.8c0-1.2,0.4-2.2,1.1-3c0.7-0.7,1.6-1.1,2.7-1.1c1.1,0,1.9,0.3,2.5,1c0.6,0.6,0.9,1.5,0.9,2.6v1H120.7z
					 M118.6,101.5c0-1.1-0.4-1.6-1.3-1.6c-0.4,0-0.7,0.2-1,0.5s-0.4,0.7-0.5,1.1H118.6z"/>
				<path d="M129.4,106h-2.3v-1l0,0c-0.5,0.8-1.3,1.2-2.3,1.2c-0.9,0-1.7-0.3-2.3-1s-0.9-1.6-0.9-2.8c0-1.2,0.3-2.2,0.9-3
					c0.6-0.7,1.5-1.1,2.5-1.1s1.6,0.3,2,1l0,0v-4.5h2.3V106H129.4z M127.2,102.4v-0.6c0-0.5-0.1-0.9-0.4-1.2
					c-0.3-0.3-0.7-0.5-1.1-0.5c-0.5,0-0.9,0.2-1.2,0.6s-0.4,1-0.4,1.7s0.1,1.2,0.4,1.5c0.3,0.4,0.7,0.5,1.2,0.5s0.9-0.2,1.1-0.6
					C127,103.5,127.2,103,127.2,102.4z"/>
				<path d="M137.9,105.1L137.9,105.1v0.9h-2.3V94.9h2.3v4.7l0,0c0.6-0.9,1.4-1.3,2.4-1.3s1.7,0.3,2.2,1s0.8,1.6,0.8,2.7
					c0,1.2-0.3,2.3-0.9,3c-0.6,0.8-1.4,1.1-2.4,1.1C139,106.2,138.3,105.9,137.9,105.1z M137.8,102v0.8c0,0.5,0.1,0.9,0.4,1.2
					c0.3,0.3,0.6,0.5,1.1,0.5s0.9-0.2,1.2-0.6s0.4-1,0.4-1.7c0-0.6-0.1-1.1-0.4-1.5c-0.3-0.3-0.6-0.5-1.1-0.5s-0.8,0.2-1.2,0.5
					C137.9,101,137.8,101.4,137.8,102z"/>
				<path d="M152,98.5l-3,8.1c-0.7,1.9-1.8,2.9-3.3,2.9c-0.6,0-1-0.1-1.4-0.2v-1.8c0.3,0.2,0.6,0.3,1,0.3c0.6,0,1-0.3,1.2-0.8
					l0.4-0.9l-3-7.5h2.6l1.4,4.6c0.1,0.3,0.2,0.6,0.2,1l0,0c0-0.3,0.1-0.6,0.2-1l1.4-4.6h2.3V98.5z"/>
			</g>
			<g>
				<path d="M246.4,109.1c-0.4,0-0.8-0.1-1-0.4s-0.4-0.6-0.4-1s0.1-0.7,0.4-1c0.2-0.3,0.6-0.4,1-0.4s0.8,0.1,1,0.4s0.4,0.6,0.4,1
					s-0.1,0.7-0.4,1S246.8,109.1,246.4,109.1z"/>
				<path d="M254.6,103.5c0-0.4-0.1-0.8-0.3-1.1c-0.2-0.3-0.5-0.5-0.9-0.5c-1,0-1.5,0.8-1.5,2.5c0,0.8,0.1,1.4,0.3,1.9
					c0.2,0.5,0.6,0.7,1.2,0.7c0.4,0,0.7-0.1,1-0.4c0.2-0.3,0.4-0.6,0.4-1.1l2.4,0.1c-0.1,1.1-0.5,1.9-1.2,2.5s-1.6,0.9-2.7,0.9
					c-1.3,0-2.3-0.4-3-1.2c-0.7-0.8-1.1-1.9-1.1-3.2c0-1.4,0.4-2.5,1.1-3.4c0.8-0.9,1.8-1.3,3.1-1.3c0.6,0,1.2,0.1,1.8,0.4
					c0.6,0.3,1,0.7,1.3,1.2s0.5,1.1,0.6,1.8L254.6,103.5z"/>
				<path d="M260.4,104.3c0,0.9,0.1,1.6,0.2,2.2c0.2,0.6,0.5,0.9,1.1,0.9c1,0,1.5-0.9,1.5-2.8c0-0.9-0.1-1.6-0.3-2.2
					c-0.2-0.5-0.6-0.8-1.2-0.8C260.8,101.7,260.4,102.5,260.4,104.3z M265.9,104.6c0,1.3-0.4,2.3-1.1,3.2c-0.8,0.9-1.7,1.3-3,1.3
					c-0.8,0-1.6-0.2-2.2-0.6s-1.1-0.9-1.4-1.6s-0.5-1.5-0.5-2.3c0-0.9,0.2-1.6,0.5-2.3c0.3-0.7,0.8-1.2,1.4-1.6s1.3-0.6,2.2-0.6
					c0.9,0,1.6,0.2,2.2,0.6s1.1,1,1.4,1.7C265.7,103,265.9,103.8,265.9,104.6z"/>
				<path d="M269.2,100.3v1.3l0,0c0.4-1,1.2-1.5,2.4-1.5c1.1,0,1.9,0.5,2.3,1.5c0.2-0.5,0.5-0.9,1-1.1c0.4-0.3,0.9-0.4,1.5-0.4
					c0.9,0,1.6,0.3,2.1,0.9c0.3,0.4,0.5,1,0.5,1.7v0.9v5.5h-2.5v-4.6c0-0.8,0-1.3,0-1.6c-0.1-0.5-0.5-0.7-1.1-0.7
					c-0.5,0-0.9,0.2-1.1,0.7c-0.1,0.3-0.2,0.8-0.2,1.6v4.6h-2.4v-4.6v-0.6c0-0.5-0.1-0.9-0.2-1.2c-0.1-0.3-0.4-0.4-0.9-0.4
					s-0.9,0.2-1,0.6s-0.2,1-0.2,1.7v4.6h-2.5v-8.8h2.3V100.3z"/>
				<path d="M167.6,105.5c-0.5,0.6-1.6,0.8-2.4,0.8c-0.7-0.1-1.6-0.3-2-1.3c-0.4-0.9-0.7-2.2-0.7-3.6c0-3.6,0.8-5.3,2.5-5.3
					s2.2,0.5,2.6,2.6l4.1-0.3c-0.2-2-0.8-2.9-1.9-4s-2.7-1.6-4.7-1.6c-2.4,0-4.2,0.8-5.5,2.4s-1.9,3.5-1.9,5.9
					c0,1.1,0.1,2.2,0.4,3.1c0.3,1,0.8,1.9,1.4,2.6c0.6,0.8,1.4,1.4,2.3,1.8s2,0.7,3.1,0.7c1.3,0,2.4-0.2,3.4-0.7s1.9-1.1,2.5-2
					c0.2-0.3,0.9-1.5,1.1-2.7l-3.3-0.6C168.5,104.3,167.9,105.1,167.6,105.5z"/>
				<path d="M179.3,106.2c-0.2,0.5-1.1,0.9-1.7,0.9c-0.4,0-0.9-0.1-1.1-0.4c-0.2-0.2-0.3-0.6-0.3-0.8c0-0.3,0-0.9,0.9-1.4
					c0.3-0.1,1.2-0.4,2.1-0.5L179.3,106.2z M183,102.1c0-1,0-1.5-0.2-2c-0.1-0.5-0.8-1.3-1.3-1.6c-0.7-0.4-1.8-0.6-3.4-0.6
					c-1.4,0-2.7,0.2-3.6,1c-0.4,0.4-1.1,1-1.4,2l3.1,0.7c0.1-0.2,0.3-0.7,0.6-1c0.1-0.1,0.5-0.4,1.1-0.4c0.1,0,0.7,0,0.9,0.2
					c0.3,0.2,0.5,0.4,0.5,1.2v0.7c-2.3,0-3.4,0.3-4,0.5c-1.2,0.3-2.6,1.6-2.6,3.3c0,1,0.3,1.8,1,2.4s1.5,0.8,2.6,0.8
					c0.8,0,1.5-0.2,2-0.5c0.1-0.1,1.1-0.9,1.1-1c0,0.4,0,1,0,1.2h3.9c-0.3-0.7-0.3-1-0.3-1.7L183,102.1L183,102.1z"/>
				<path d="M198.9,106.2c-0.2,0.5-1.1,0.9-1.7,0.9c-0.4,0-0.9-0.1-1.1-0.4c-0.2-0.2-0.3-0.6-0.2-0.8c0-0.3,0-0.9,0.9-1.4
					c0.3-0.1,1.2-0.4,2.1-0.5L198.9,106.2z M202.6,102.1c0-1-0.1-1.5-0.2-2s-0.8-1.3-1.3-1.6c-0.7-0.4-1.8-0.6-3.4-0.6
					c-1.4,0-2.7,0.2-3.6,1c-0.4,0.4-1.1,1-1.4,2l3.1,0.7c0.1-0.2,0.3-0.7,0.6-1c0.1-0.1,0.5-0.4,1.1-0.4c0.1,0,0.7,0,0.9,0.2
					c0.3,0.2,0.5,0.4,0.5,1.2v0.7c-2.3,0-3.4,0.3-4,0.5c-1.2,0.3-2.6,1.6-2.6,3.3c0,1,0.3,1.8,1,2.4s1.5,0.8,2.6,0.8
					c0.8,0,1.5-0.2,2-0.5c0.1-0.1,1.1-0.9,1.1-1c0,0.4,0,1,0,1.2h3.9c-0.3-0.7-0.3-1-0.3-1.7L202.6,102.1L202.6,102.1z"/>
				<path d="M191.5,98.2h-2v-3.9h-3.2l-0.3,3.9h-1.9v2.3h1.7v4.9c0,0.8-0.1,1.6,0,2.1s0.4,0.9,0.8,1.2c0.6,0.5,2.2,0.6,3.1,0.6
					c0.7,0,1.6-0.2,1.6-0.2v-2.5c0,0-0.4,0.1-0.7,0.1c-0.2,0-0.8-0.1-1-0.3c-0.2-0.2-0.2-1-0.2-1.5v-4.4h1.9L191.5,98.2z"/>
				<polygon points="203.9,93.6 203.9,109.1 207.8,109.1 207.7,93.6 				"/>
				<path d="M214.7,106.8c-0.8,0-1.4-0.4-1.6-1.2c-0.2-0.8-0.2-1.1-0.2-2.2c0-2.3,0.5-3.1,1.9-3.1c0.9,0,1.4,0.3,1.6,1
					c0.1,0.4,0.2,1.1,0.2,2.3C216.5,105.9,216,106.8,214.7,106.8z M217.8,98.4c-0.9-0.5-1.9-0.8-3.1-0.8s-2.3,0.2-3.2,0.7
					c-0.9,0.5-1.6,1.3-2,2.2c-0.4,0.9-0.7,1.9-0.7,3s0.2,2.2,0.7,3.1s1.1,1.5,2,2s2.1,0.7,3.2,0.7c1.7,0,3.1-0.4,4.2-1.5
					s1.6-2.5,1.6-4.2c0-1.2-0.1-2.1-0.6-3.1C219.4,99.7,218.7,99,217.8,98.4z"/>
				<path d="M242.6,102.9c-0.6-0.5-1.4-0.8-2.3-1c-0.9-0.1-1.7-0.3-2.5-0.5c-0.8-0.1-1.1-0.4-1-0.9c0.1-0.4,0.6-0.8,1.5-0.8
					c1.2,0,1.8,0.4,2.6,1.2l2.3-1.3c-0.6-0.9-2.3-2.3-4.6-2.3c-1.4,0-2.5,0.3-3.5,0.9c-0.9,0.6-1.4,1.6-1.4,2.9
					c0,0.7,0.2,1.3,0.6,1.9s1,0.9,1.6,1.2c0.7,0.2,1.8,0.5,3.4,0.7c0.9,0.1,1.3,0.4,1.3,1c0,0.4-0.2,0.7-0.7,0.8
					c-0.4,0.2-0.9,0.3-1.3,0.3c-1.5,0-2.5-0.7-3.1-1.7l-2.3,1.5c0.5,0.9,1.9,1.7,1.9,1.7c0.9,0.5,2.1,0.9,3.4,0.9c1.5,0,3.1-0.3,4-1
					c1-0.8,1.5-1.7,1.5-3C243.9,104.3,243.2,103.4,242.6,102.9z"/>
				<path d="M226.7,102.8c-0.6,0-1-0.1-1.3-0.4s-0.5-0.7-0.5-1.2s0.2-0.9,0.5-1.2c0.3-0.3,0.8-0.4,1.3-0.4c0.4,0,1.6,0.3,1.5,1.5
					C228.3,102.6,227.3,102.8,226.7,102.8z M225.8,108.7h1.6c0.8,0.1,2.2,0.3,2.3,0.9c0.1,0.4-0.6,1-2.7,1c-1.1,0-1.9-0.1-2.5-0.2
					c-0.6-0.2-0.9-0.5-0.8-0.9C223.8,108.6,225.8,108.7,225.8,108.7z M231,100.1c1-0.6,2.1,0,2.1,0s0-0.8,0.1-2.2c-2.3,0-3,1-3,1
					s0.2,0.1,0.4,0.4l0,0c-0.4-0.6-1.6-1.1-1.6-1.1s-1-0.4-2.1-0.4c-1.4,0-2.7,0.3-3.7,0.8c-1.1,0.5-1.6,1.4-1.6,2.5
					c0,1.3,0.9,2.7,2.3,2.9c0,0-2.4,0.7-2.7,2.2c-0.2,0.8,0.2,1.6,1.8,2.1c-1.8,0.5-2.1,1.4-2.1,1.9c0,0.8,0.8,1.5,1.6,1.7
					c0.8,0.3,3.1,0.3,4.7,0.3c1.8,0,2.9-0.2,3.9-0.6c1.6-0.6,2.1-1.7,2.1-3c0-1.1-0.7-1.8-1.4-2.2c-0.5-0.3-1-0.5-2.3-0.7l-1.8-0.1
					c-1.2,0-2,0-2.2,0c-0.4-0.1-0.7-0.3-0.7-0.7c0-0.3,0.4-0.5,0.7-0.6l1.6,0.1c0.8,0,1.6-0.2,2.4-0.4c0.6-0.2,1-0.6,1.3-0.9
					c0.5-0.5,0.7-1.2,0.7-2c0-0.5-0.3-1-0.5-1.4C230.9,99.9,231,100,231,100.1z"/>
			</g>
		</g>
		<rect x="334.8" y="29.2" class="st2" width="49" height="21"/>
		<g class="st3">
			<path d="M343.9,33.8c0,2.2-1.8,4-4,4c-2.3,0-4.1-1.8-4.1-4s1.8-3.9,4.1-3.9C342.1,29.8,343.9,31.6,343.9,33.8z M336.8,33.8
				c0,1.8,1.3,3.1,3.1,3.1c1.7,0,3-1.4,3-3.1c0-1.8-1.3-3.2-3-3.2C338.1,30.6,336.8,32.1,336.8,33.8z M339.2,35.8h-0.9v-3.9
				c0.4,0,0.9-0.1,1.5-0.1c0.7,0,1.1,0.1,1.3,0.3c0.2,0.2,0.4,0.5,0.4,0.8c0,0.5-0.4,0.8-0.8,0.9v0c0.4,0.1,0.6,0.4,0.7,1
				c0.1,0.6,0.2,0.8,0.3,1h-1c-0.1-0.1-0.2-0.5-0.3-1c-0.1-0.4-0.3-0.6-0.8-0.6h-0.4V35.8z M339.3,33.6h0.4c0.5,0,0.9-0.2,0.9-0.6
				c0-0.4-0.3-0.6-0.8-0.6c-0.2,0-0.4,0-0.5,0V33.6z"/>
		</g>
		<rect x="7" y="23.4" class="st2" width="335.2" height="111.3"/>
		<g class="st3">
			<path d="M56.1,51.9c0,8.5-2.4,14.9-7.2,19.4S37.1,78.1,28,78.1H13.4V26.7h16.1c8.4,0,14.9,2.2,19.5,6.6S56.1,44,56.1,51.9z
				 M44.8,52.2c0-11-4.9-16.6-14.6-16.6h-5.8v33.5H29C39.5,69.1,44.8,63.5,44.8,52.2z"/>
			<path d="M60.3,38.8H72l7.4,22.1c0.6,1.9,1.1,4.2,1.3,6.8h0.2c0.3-2.4,0.8-4.7,1.5-6.8l7.3-22.1h11.5L84.6,83.2
				c-1.5,4.1-3.7,7.2-6.5,9.2c-2.8,2-6.1,3.1-9.9,3.1c-1.9,0-3.7-0.2-5.4-0.6v-8.5c1.3,0.3,2.7,0.5,4.2,0.5c1.9,0,3.6-0.6,5-1.7
				c1.4-1.2,2.5-2.9,3.3-5.3l0.6-1.9L60.3,38.8z"/>
			<path d="M143.1,78.1h-10.7v-23c0-2.8-0.5-5-1.5-6.4c-1-1.4-2.6-2.1-4.8-2.1c-3,0-5.2,1-6.5,3s-2,5.3-2,10v18.5h-10.7V38.8h8.2
				l1.4,5h0.6c1.2-1.9,2.8-3.3,4.9-4.3c2.1-1,4.5-1.5,7.2-1.5c4.6,0,8,1.2,10.4,3.7c2.4,2.5,3.6,6,3.6,10.7V78.1z"/>
			<path d="M179.1,78.1l-2.1-5.3h-0.3c-1.8,2.3-3.7,3.8-5.6,4.7c-1.9,0.9-4.4,1.3-7.5,1.3c-3.8,0-6.7-1.1-8.9-3.2
				c-2.2-2.2-3.3-5.2-3.3-9.2c0-4.2,1.5-7.2,4.4-9.2s7.3-3.1,13.2-3.3l6.8-0.2v-1.7c0-4-2-6-6.1-6c-3.1,0-6.8,0.9-11.1,2.8l-3.6-7.2
				c4.5-2.4,9.5-3.6,15-3.6c5.3,0,9.3,1.1,12.1,3.4s4.2,5.8,4.2,10.5v26.2H179.1z M176,59.9l-4.1,0.1c-3.1,0.1-5.4,0.7-7,1.7
				c-1.5,1-2.3,2.6-2.3,4.7c0,3,1.7,4.5,5.2,4.5c2.5,0,4.5-0.7,6-2.1c1.5-1.4,2.2-3.3,2.2-5.7V59.9z"/>
			<path d="M208.4,78.1h-10.7V23.4h10.7V78.1z"/>
			<path d="M255.4,58.4c0,6.4-1.7,11.4-5.1,15s-8.1,5.4-14.1,5.4c-3.8,0-7.1-0.8-10-2.5s-5.1-4-6.6-7.1s-2.3-6.7-2.3-10.8
				c0-6.4,1.7-11.4,5-15c3.4-3.6,8.1-5.3,14.1-5.3c3.8,0,7.1,0.8,10,2.5s5.1,4,6.6,7.1S255.4,54.3,255.4,58.4z M228.2,58.4
				c0,3.9,0.6,6.8,1.9,8.8c1.3,2,3.4,3,6.2,3c2.9,0,4.9-1,6.2-3c1.3-2,1.9-4.9,1.9-8.8c0-3.9-0.6-6.8-1.9-8.8s-3.3-2.9-6.2-2.9
				c-2.9,0-4.9,1-6.2,2.9S228.2,54.5,228.2,58.4z"/>
			<path d="M298.4,38.8v5.4l-6.2,1.6c1.1,1.8,1.7,3.7,1.7,5.9c0,4.2-1.5,7.5-4.4,9.9s-7,3.5-12.3,3.5l-1.9-0.1l-1.6-0.2
				c-1.1,0.8-1.7,1.8-1.7,2.8c0,1.5,2,2.3,5.9,2.3h6.7c4.3,0,7.6,0.9,9.9,2.8s3.4,4.6,3.4,8.2c0,4.6-1.9,8.2-5.7,10.7
				s-9.3,3.8-16.5,3.8c-5.5,0-9.7-1-12.6-2.9c-2.9-1.9-4.3-4.6-4.3-8c0-2.4,0.7-4.3,2.2-5.9s3.6-2.7,6.5-3.4
				c-1.1-0.5-2.1-1.2-2.9-2.3c-0.8-1.1-1.2-2.2-1.2-3.4c0-1.5,0.4-2.7,1.3-3.7c0.9-1,2.1-2,3.8-2.9c-2.1-0.9-3.7-2.3-4.9-4.3
				c-1.2-2-1.8-4.3-1.8-7c0-4.3,1.4-7.6,4.2-9.9c2.8-2.3,6.8-3.5,12-3.5c1.1,0,2.4,0.1,3.9,0.3s2.5,0.3,2.9,0.4H298.4z M268.1,83.7
				c0,1.5,0.7,2.6,2.1,3.5c1.4,0.8,3.4,1.3,6,1.3c3.8,0,6.9-0.5,9-1.6s3.3-2.5,3.3-4.3c0-1.5-0.6-2.5-1.9-3.1
				c-1.3-0.6-3.3-0.8-6-0.8H275c-2,0-3.6,0.5-4.9,1.4C268.7,80.9,268.1,82.2,268.1,83.7z M272,51.7c0,2.1,0.5,3.8,1.5,5.1
				c1,1.2,2.5,1.9,4.4,1.9c2,0,3.5-0.6,4.4-1.9c0.9-1.2,1.4-2.9,1.4-5.1c0-4.7-1.9-7.1-5.8-7.1C273.9,44.6,272,47,272,51.7z"/>
			<path d="M332.3,66.5c0,4-1.4,7.1-4.2,9.2s-7,3.2-12.6,3.2c-2.9,0-5.3-0.2-7.3-0.6s-3.9-1-5.7-1.7v-8.9c2,0.9,4.2,1.7,6.7,2.4
				s4.7,0.9,6.6,0.9c3.9,0,5.8-1.1,5.8-3.4c0-0.8-0.3-1.5-0.8-2.1s-1.4-1.1-2.7-1.8s-3-1.4-5.1-2.3c-3-1.3-5.2-2.4-6.7-3.5
				s-2.4-2.3-3.1-3.7s-1-3.1-1-5.2c0-3.5,1.4-6.2,4.1-8.1s6.5-2.9,11.5-2.9c4.7,0,9.3,1,13.8,3.1l-3.2,7.7c-2-0.8-3.8-1.5-5.5-2.1
				s-3.5-0.8-5.2-0.8c-3.2,0-4.7,0.9-4.7,2.6c0,1,0.5,1.8,1.5,2.5s3.3,1.7,6.7,3.1c3.1,1.2,5.3,2.4,6.8,3.5s2.5,2.3,3.2,3.7
				S332.3,64.5,332.3,66.5z"/>
		</g>
	</g>
</g>
</svg>
