<svg id="Layer_1" data-name="Layer 1" xmlns="http://www.w3.org/2000/svg" viewBox="0 0 189.45 61.23"><defs><style>.cls-1{fill:#fff;}</style></defs><title>Dynalog Logo no-fan_black_bg-final_4119_white_type</title><path class="cls-1" d="M208.4,378.64v-35h12.4q18.66,0,18.65,17.06,0,8.19-5.09,13.06t-13.56,4.89Zm7.88-28.59v22.19h3.91a10.58,10.58,0,0,0,8.05-3.08,11.68,11.68,0,0,0,2.91-8.37,10.56,10.56,0,0,0-2.89-7.87c-1.93-1.92-4.63-2.87-8.12-2.87Z" transform="translate(-208.4 -341.62)"/><path class="cls-1" d="M268.31,353.64l-10.15,27q-3.68,9.74-11,9.74a13.9,13.9,0,0,1-4.61-.64v-6.15a6.5,6.5,0,0,0,3.34.91,4.18,4.18,0,0,0,4.15-2.81l1.32-3.1-10.16-24.95h8.55l4.66,15.21a19.78,19.78,0,0,1,.68,3.34h.1a24,24,0,0,1,.81-3.29l4.71-15.26Z" transform="translate(-208.4 -341.62)"/><path class="cls-1" d="M295.56,378.64h-7.69v-13.9c0-3.87-1.39-5.81-4.15-5.81a4.13,4.13,0,0,0-3.3,1.54,5.89,5.89,0,0,0-1.29,3.91v14.26h-7.72v-25h7.72v3.95h.09a8.85,8.85,0,0,1,8-4.56q8.3,0,8.3,10.3Z" transform="translate(-208.4 -341.62)"/><path class="cls-1" d="M322.46,378.64h-7.3v-3.59h-.1a8.13,8.13,0,0,1-7.44,4.2,7.78,7.78,0,0,1-5.73-2.07,7.38,7.38,0,0,1-2.08-5.5q0-7.28,8.61-8.4l6.79-.9q0-4.11-4.44-4.11a15.15,15.15,0,0,0-8.5,2.67v-5.81a18.65,18.65,0,0,1,4.41-1.47,23.3,23.3,0,0,1,5.09-.63q10.69,0,10.69,10.66Zm-7.25-10.16V366.8l-4.54.58q-3.76.5-3.76,3.39a2.87,2.87,0,0,0,.91,2.17,3.55,3.55,0,0,0,2.48.84,4.57,4.57,0,0,0,3.54-1.5A5.46,5.46,0,0,0,315.21,368.48Z" transform="translate(-208.4 -341.62)"/><path class="cls-1" d="M336.28,378.64h-7.71v-37h7.71Z" transform="translate(-208.4 -341.62)"/><path class="cls-1" d="M354.69,379.25q-6.26,0-9.83-3.51t-3.58-9.51q0-6.19,3.72-9.7t10-3.5q6.23,0,9.77,3.5a12.43,12.43,0,0,1,3.54,9.26c0,4.15-1.22,7.44-3.65,9.84S358.92,379.25,354.69,379.25Zm.19-20.32a5.13,5.13,0,0,0-4.24,1.88,8.31,8.31,0,0,0-1.52,5.33q0,7.2,5.81,7.2,5.55,0,5.54-7.4Q360.47,358.93,354.88,358.93Z" transform="translate(-208.4 -341.62)"/><path class="cls-1" d="M397.85,375.78q0,7-4,10.78t-11.67,3.82a18.43,18.43,0,0,1-8-1.44v-6.5a15.28,15.28,0,0,0,7.78,2.25,8.41,8.41,0,0,0,6.06-2.06,7.44,7.44,0,0,0,2.15-5.61v-2H390a8.61,8.61,0,0,1-7.79,4.2,9.38,9.38,0,0,1-7.59-3.37q-2.81-3.37-2.81-9,0-6.34,3.13-10.08A10.18,10.18,0,0,1,383.2,353a7.59,7.59,0,0,1,6.84,3.51h.1v-2.9h7.71Zm-7.61-9.16v-2a6,6,0,0,0-1.41-4,4.52,4.52,0,0,0-3.65-1.68,4.72,4.72,0,0,0-4,2,9.44,9.44,0,0,0-1.46,5.64,7.92,7.92,0,0,0,1.39,4.94,4.55,4.55,0,0,0,3.81,1.82,4.76,4.76,0,0,0,3.87-1.84A7.61,7.61,0,0,0,390.24,366.62Z" transform="translate(-208.4 -341.62)"/><path class="cls-1" d="M234.86,398h0v2.88H233.3v-7.3h1.54v.76h0a1.81,1.81,0,0,1,1.61-.88,1.78,1.78,0,0,1,1.5.67,2.85,2.85,0,0,1,.53,1.81,3.09,3.09,0,0,1-.62,2,2,2,0,0,1-1.64.76A1.57,1.57,0,0,1,234.86,398Zm0-2.05v.4a1.29,1.29,0,0,0,.27.85.88.88,0,0,0,.72.32,1,1,0,0,0,.82-.4,2,2,0,0,0,.29-1.16c0-.88-.35-1.32-1-1.32a1,1,0,0,0-.77.36A1.44,1.44,0,0,0,234.82,395.9Z" transform="translate(-208.4 -341.62)"/><path class="cls-1" d="M241.88,398.66a2.7,2.7,0,0,1-2-.7,2.9,2.9,0,0,1,0-3.85,2.86,2.86,0,0,1,2-.7,2.67,2.67,0,0,1,2,.7,2.48,2.48,0,0,1,.71,1.86,2.61,2.61,0,0,1-.73,2A2.69,2.69,0,0,1,241.88,398.66Zm0-4.07a1,1,0,0,0-.85.38,1.67,1.67,0,0,0-.3,1.06c0,1,.39,1.44,1.16,1.44S243,397,243,396,242.67,394.59,241.92,394.59Z" transform="translate(-208.4 -341.62)"/><path class="cls-1" d="M252.85,393.53l-1.44,5h-1.62l-.74-2.93A3.85,3.85,0,0,1,249,395h0a3,3,0,0,1-.1.63l-.79,2.94h-1.6l-1.41-5h1.57l.69,3.27a5.12,5.12,0,0,1,.08.55h0a3.6,3.6,0,0,1,.09-.57l.86-3.25h1.47l.77,3.27a3.77,3.77,0,0,1,.07.56h0a5,5,0,0,1,.07-.56l.65-3.27Z" transform="translate(-208.4 -341.62)"/><path class="cls-1" d="M258.08,396.47h-3.26c.05.73.51,1.09,1.37,1.09a2.69,2.69,0,0,0,1.45-.39v1.12a3.88,3.88,0,0,1-1.8.37,2.33,2.33,0,0,1-2.55-2.55,2.68,2.68,0,0,1,.72-2,2.4,2.4,0,0,1,1.78-.73,2.19,2.19,0,0,1,1.69.65,2.49,2.49,0,0,1,.6,1.76Zm-1.43-.94q0-1.08-.87-1.08a.81.81,0,0,0-.64.31,1.39,1.39,0,0,0-.33.77Z" transform="translate(-208.4 -341.62)"/><path class="cls-1" d="M262.26,394.93a1.36,1.36,0,0,0-.65-.16,1,1,0,0,0-.79.37,1.62,1.62,0,0,0-.28,1v2.38H259v-5h1.54v.93h0a1.33,1.33,0,0,1,1.32-1,1.25,1.25,0,0,1,.38.05Z" transform="translate(-208.4 -341.62)"/><path class="cls-1" d="M267.47,396.47h-3.26c.05.73.51,1.09,1.37,1.09a2.69,2.69,0,0,0,1.45-.39v1.12a3.88,3.88,0,0,1-1.8.37,2.33,2.33,0,0,1-2.55-2.55,2.68,2.68,0,0,1,.72-2,2.38,2.38,0,0,1,1.78-.73,2.19,2.19,0,0,1,1.69.65,2.49,2.49,0,0,1,.6,1.76Zm-1.43-.94q0-1.08-.87-1.08a.81.81,0,0,0-.64.31,1.39,1.39,0,0,0-.33.77Z" transform="translate(-208.4 -341.62)"/><path class="cls-1" d="M273.28,398.53h-1.54v-.68h0a1.74,1.74,0,0,1-1.55.81,1.89,1.89,0,0,1-1.51-.66,2.77,2.77,0,0,1-.57-1.85,3,3,0,0,1,.63-2,2.05,2.05,0,0,1,1.65-.75,1.41,1.41,0,0,1,1.35.7h0v-3h1.54Zm-1.52-2.43v-.37a1.16,1.16,0,0,0-.28-.81.92.92,0,0,0-.74-.33.94.94,0,0,0-.8.41,1.85,1.85,0,0,0-.28,1.1,1.67,1.67,0,0,0,.27,1,.93.93,0,0,0,.78.35.92.92,0,0,0,.76-.37A1.55,1.55,0,0,0,271.76,396.1Z" transform="translate(-208.4 -341.62)"/><path class="cls-1" d="M278.9,398h0v.58h-1.54v-7.4h1.54v3.16h0a1.81,1.81,0,0,1,1.62-.88,1.75,1.75,0,0,1,1.49.67,2.83,2.83,0,0,1,.53,1.81,3.15,3.15,0,0,1-.61,2,2,2,0,0,1-1.63.76A1.57,1.57,0,0,1,278.9,398Zm0-2.11v.52a1.2,1.2,0,0,0,.28.8,1,1,0,0,0,1.53-.09,2,2,0,0,0,.29-1.16,1.57,1.57,0,0,0-.26-1,.91.91,0,0,0-.76-.35,1,1,0,0,0-.77.35A1.33,1.33,0,0,0,278.85,395.84Z" transform="translate(-208.4 -341.62)"/><path class="cls-1" d="M288.3,393.53l-2,5.4c-.49,1.3-1.23,1.95-2.21,1.95a3,3,0,0,1-.92-.12v-1.23a1.29,1.29,0,0,0,.67.18.84.84,0,0,0,.83-.57l.26-.62-2-5h1.71l.93,3.05a4.32,4.32,0,0,1,.14.67h0a4.44,4.44,0,0,1,.16-.66l.94-3.06Z" transform="translate(-208.4 -341.62)"/><path class="cls-1" d="M351.23,400.6a.84.84,0,0,1-.67-.29,1,1,0,0,1-.25-.66,1,1,0,0,1,.25-.67.82.82,0,0,1,.67-.28.84.84,0,0,1,.68.28,1,1,0,0,1,.24.67,1,1,0,0,1-.24.67A.84.84,0,0,1,351.23,400.6Z" transform="translate(-208.4 -341.62)"/><path class="cls-1" d="M356.72,396.87a1.21,1.21,0,0,0-.22-.75.72.72,0,0,0-.63-.32c-.68,0-1,.56-1,1.69a3.56,3.56,0,0,0,.17,1.24.73.73,0,0,0,.78.48.8.8,0,0,0,.65-.29,1.33,1.33,0,0,0,.27-.72l1.58.09a2.44,2.44,0,0,1-.82,1.69,2.6,2.6,0,0,1-1.77.62,2.48,2.48,0,0,1-2-.83,3.11,3.11,0,0,1-.73-2.15,3.28,3.28,0,0,1,.75-2.24,2.64,2.64,0,0,1,2.08-.85,2.52,2.52,0,0,1,1.19.28,2.19,2.19,0,0,1,.89.79,2.55,2.55,0,0,1,.4,1.18Z" transform="translate(-208.4 -341.62)"/><path class="cls-1" d="M360.58,397.38a5.85,5.85,0,0,0,.17,1.48.73.73,0,0,0,.76.63c.65,0,1-.63,1-1.87a5.29,5.29,0,0,0-.17-1.45.78.78,0,0,0-.8-.53Q360.58,395.64,360.58,397.38Zm3.65.24a3.11,3.11,0,0,1-.75,2.13,2.49,2.49,0,0,1-2,.85,2.47,2.47,0,0,1-2.37-1.5,3.55,3.55,0,0,1-.32-1.55,3.71,3.71,0,0,1,.31-1.56,2.48,2.48,0,0,1,.93-1.07,2.64,2.64,0,0,1,1.45-.39,2.52,2.52,0,0,1,2.41,1.5A3.86,3.86,0,0,1,364.23,397.62Z" transform="translate(-208.4 -341.62)"/><path class="cls-1" d="M366.47,394.74v.9h0a1.57,1.57,0,0,1,1.57-1,1.61,1.61,0,0,1,1.56,1,1.5,1.5,0,0,1,.65-.75,1.93,1.93,0,0,1,1-.25,1.71,1.71,0,0,1,1.38.58,1.84,1.84,0,0,1,.3,1.15v4.23h-1.64v-3.09c0-.55,0-.9,0-1.05s-.31-.45-.71-.45a.71.71,0,0,0-.71.43,3.07,3.07,0,0,0-.13,1.07v3.09h-1.63v-3.49a1.86,1.86,0,0,0-.14-.82.6.6,0,0,0-.6-.3.65.65,0,0,0-.69.41,3.61,3.61,0,0,0-.14,1.11v3.09h-1.63v-5.86Z" transform="translate(-208.4 -341.62)"/><path class="cls-1" d="M298.7,398.22a2.05,2.05,0,0,1-1.61.52,1.44,1.44,0,0,1-1.33-.85,6.09,6.09,0,0,1-.48-2.43c0-2.39.54-3.53,1.69-3.54s1.43.35,1.76,1.77l2.72-.17a3.85,3.85,0,0,0-1.26-2.67,4.3,4.3,0,0,0-3.13-1.08,4.49,4.49,0,0,0-3.66,1.57,6,6,0,0,0-1.28,3.93,7.2,7.2,0,0,0,.3,2.1,5.2,5.2,0,0,0,.92,1.76,4.12,4.12,0,0,0,1.53,1.21,4.79,4.79,0,0,0,2.09.44,5.23,5.23,0,0,0,2.25-.46,4.21,4.21,0,0,0,1.67-1.33,4.3,4.3,0,0,0,.72-1.78l-2.23-.4A3,3,0,0,1,298.7,398.22Z" transform="translate(-208.4 -341.62)"/><path class="cls-1" d="M306.54,398.67a1.49,1.49,0,0,1-1.12.63.86.86,0,0,1-.73-.26.81.81,0,0,1-.17-.56.94.94,0,0,1,.61-.92,5.26,5.26,0,0,1,1.42-.31ZM309,395.9a4.72,4.72,0,0,0-.12-1.32,2.17,2.17,0,0,0-.85-1.08,4.92,4.92,0,0,0-2.26-.41,3.62,3.62,0,0,0-2.39.65,2.75,2.75,0,0,0-.91,1.33l2.05.5a2.11,2.11,0,0,1,.41-.69,1.07,1.07,0,0,1,.7-.24,1.2,1.2,0,0,1,.59.15c.19.16.31.29.31.82v.49a10.1,10.1,0,0,0-2.66.33,2.43,2.43,0,0,0-1.74,2.18,2,2,0,0,0,.66,1.59,2.52,2.52,0,0,0,1.71.56,2.55,2.55,0,0,0,1.35-.32,4,4,0,0,0,.74-.67c0,.27,0,.66,0,.83h2.59a2.53,2.53,0,0,1-.18-1.14Z" transform="translate(-208.4 -341.62)"/><path class="cls-1" d="M319.6,398.67a1.53,1.53,0,0,1-1.13.63.91.91,0,0,1-.74-.26.85.85,0,0,1-.16-.56.94.94,0,0,1,.61-.92,5.26,5.26,0,0,1,1.42-.31ZM322,395.9a4.72,4.72,0,0,0-.12-1.32,2.21,2.21,0,0,0-.84-1.08,4.92,4.92,0,0,0-2.26-.41,3.65,3.65,0,0,0-2.4.65,2.75,2.75,0,0,0-.91,1.33l2.05.5a2,2,0,0,1,.41-.69,1.1,1.1,0,0,1,.71-.24,1.16,1.16,0,0,1,.58.15c.19.16.31.29.31.82v.49a10.1,10.1,0,0,0-2.66.33,2.43,2.43,0,0,0-1.74,2.18,2,2,0,0,0,.66,1.59,2.52,2.52,0,0,0,1.71.56,2.61,2.61,0,0,0,1.36-.32,4.31,4.31,0,0,0,.73-.67c0,.27,0,.66,0,.83h2.59a2.67,2.67,0,0,1-.18-1.14Z" transform="translate(-208.4 -341.62)"/><path class="cls-1" d="M314.64,393.33h-1.32v-2.61h-2.12l-.17,2.61h-1.28v1.53h1.15v3.24a7.94,7.94,0,0,0,0,1.43,1.38,1.38,0,0,0,.56.8,4.17,4.17,0,0,0,2,.41,6.83,6.83,0,0,0,1.08-.13V399a1.9,1.9,0,0,1-.47.1.93.93,0,0,1-.68-.22,2.43,2.43,0,0,1-.13-1v-3h1.28Z" transform="translate(-208.4 -341.62)"/><polygon class="cls-1" points="114.54 48.61 114.54 58.95 117.12 58.96 117.09 48.61 114.54 48.61"/><path class="cls-1" d="M330.1,399.05a1,1,0,0,1-1.07-.82,4.42,4.42,0,0,1-.16-1.49c0-1.52.36-2.08,1.23-2.08.57,0,.92.19,1,.66a5.31,5.31,0,0,1,.16,1.52C331.31,398.47,331,399.05,330.1,399.05Zm2.08-5.58a3.94,3.94,0,0,0-2.08-.53,4.17,4.17,0,0,0-2.11.48,3.58,3.58,0,0,0-1.37,1.44,4.83,4.83,0,0,0,0,4.07,3.32,3.32,0,0,0,1.32,1.36,4.3,4.3,0,0,0,2.16.48,3.61,3.61,0,0,0,2.79-1A3.9,3.9,0,0,0,334,397a4.46,4.46,0,0,0-.38-2A3.54,3.54,0,0,0,332.18,393.47Z" transform="translate(-208.4 -341.62)"/><path class="cls-1" d="M348.71,396.46a3.15,3.15,0,0,0-1.52-.66l-1.67-.3c-.52-.1-.74-.3-.69-.6s.37-.52,1-.52a2.08,2.08,0,0,1,1.73.78l1.52-.84a3.78,3.78,0,0,0-3.07-1.51,4.19,4.19,0,0,0-2.33.62,2.16,2.16,0,0,0-.94,1.94,2,2,0,0,0,.41,1.27,2.24,2.24,0,0,0,1.09.79,13.06,13.06,0,0,0,2.27.45c.57.07.86.29.86.65a.57.57,0,0,1-.44.55,2.48,2.48,0,0,1-3-1l-1.5,1a3.77,3.77,0,0,0,1.24,1.11,4.55,4.55,0,0,0,2.25.57,5.11,5.11,0,0,0,2.66-.64,2.3,2.3,0,0,0,1-2A2.21,2.21,0,0,0,348.71,396.46Z" transform="translate(-208.4 -341.62)"/><path class="cls-1" d="M338.15,396.39a1.37,1.37,0,0,1-.89-.28.94.94,0,0,1-.34-.79,1,1,0,0,1,.34-.78,1.24,1.24,0,0,1,.89-.24,1.07,1.07,0,0,1,1,1A1,1,0,0,1,338.15,396.39Zm-.63,3.94,1.05,0c.55,0,1.44.19,1.55.57s-.38.66-1.79.66a8,8,0,0,1-1.69-.14c-.37-.1-.59-.3-.55-.57C336.18,400.27,337.52,400.33,337.52,400.33Zm3.48-5.75a1.36,1.36,0,0,1,1.37,0s0-.55.06-1.46c-1.54,0-2,.68-2,.68a.75.75,0,0,1,.23.26h0a2.44,2.44,0,0,0-1.08-.71,4.9,4.9,0,0,0-1.41-.23,5.85,5.85,0,0,0-2.5.51,1.78,1.78,0,0,0-1.09,1.7,2,2,0,0,0,1.56,1.95s-1.57.5-1.77,1.5c-.12.56.16,1.09,1.17,1.42-1.19.35-1.41.95-1.41,1.28,0,.57.56,1,1.06,1.16a15.92,15.92,0,0,0,3.12.2,7.14,7.14,0,0,0,2.63-.39,1.88,1.88,0,0,0,1.37-2,1.74,1.74,0,0,0-.94-1.48,3.53,3.53,0,0,0-1.52-.47l-1.2-.07c-.8,0-1.31,0-1.45,0-.3-.09-.44-.2-.44-.48s.25-.36.48-.41l1.07,0a5.64,5.64,0,0,0,1.59-.27,2.14,2.14,0,0,0,.89-.63,1.83,1.83,0,0,0,.43-1.33,2,2,0,0,0-.35-1A1.25,1.25,0,0,1,341,394.58Z" transform="translate(-208.4 -341.62)"/></svg>